<?xml version="1.0" standalone="no"?>
<!DOCTYPE svg PUBLIC "-//W3C//DTD SVG 20010904//EN"
 "http://www.w3.org/TR/2001/REC-SVG-20010904/DTD/svg10.dtd">
<svg version="1.0" xmlns="http://www.w3.org/2000/svg"
 width="568.000000pt" height="568.000000pt" viewBox="0 0 568.000000 568.000000"
 preserveAspectRatio="xMidYMid meet">
<metadata>
Created by potrace 1.14, written by Peter Selinger 2001-2017
</metadata>
<g transform="translate(0.000000,568.000000) scale(0.100000,-0.100000)"
fill="#000000" stroke="none">
<path d="M2708 4825 c-2 -2 -37 -6 -78 -9 -604 -55 -1159 -399 -1482 -919
-118 -188 -211 -423 -253 -631 -35 -179 -36 -187 -40 -371 -12 -589 226 -1123
680 -1525 285 -252 726 -438 1106 -467 294 -21 533 7 803 97 411 138 771 416
1014 783 29 43 52 80 52 83 0 2 10 21 23 42 72 117 165 366 202 540 33 152 40
229 40 412 0 183 -7 264 -36 397 -95 448 -329 835 -674 1118 -307 251 -665
400 -1056 440 -65 7 -296 14 -301 10z m388 -85 c338 -54 642 -186 896 -388
270 -215 480 -502 598 -815 37 -100 74 -223 85 -282 2 -16 7 -39 9 -50 4 -21
11 -68 22 -145 10 -70 11 -293 2 -368 -23 -192 -42 -282 -90 -427 -136 -412
-405 -761 -771 -1000 -189 -123 -487 -243 -672 -270 -39 -6 -65 -11 -115 -21
-14 -3 -108 -7 -210 -9 -325 -6 -566 46 -855 184 -718 343 -1144 1095 -1071
1891 4 46 9 87 11 90 1 3 6 28 9 55 19 147 105 399 192 563 149 281 360 515
625 692 48 33 90 60 93 60 3 0 28 14 57 31 75 44 239 112 354 147 117 35 173
47 340 72 96 14 376 8 491 -10z"/>
<path d="M3990 4257 c-14 -6 -51 -23 -82 -38 -31 -15 -59 -25 -62 -21 -3 3 -6
0 -6 -6 0 -7 -6 -12 -14 -12 -17 0 -160 -72 -164 -83 -2 -4 -8 -5 -13 -1 -5 3
-9 0 -9 -6 0 -7 -7 -10 -15 -6 -8 3 -15 1 -15 -3 0 -5 -24 -21 -52 -36 -29
-15 -56 -33 -60 -39 -4 -6 -8 -7 -8 -3 0 5 -7 2 -15 -5 -36 -33 -50 -43 -52
-38 -1 3 -11 -2 -21 -10 -10 -8 -40 -31 -67 -50 -56 -39 -88 -64 -122 -97 -13
-12 -23 -19 -23 -16 0 3 -13 -7 -29 -23 -16 -16 -57 -56 -92 -90 -72 -69 -169
-176 -185 -205 -5 -11 -13 -16 -17 -13 -4 4 -7 0 -7 -9 0 -9 -4 -17 -10 -17
-5 0 -10 -6 -10 -13 0 -8 -7 -14 -15 -14 -8 0 -15 6 -15 12 0 7 -7 18 -15 25
-8 7 -13 16 -10 20 3 5 1 10 -3 12 -4 1 -23 26 -42 53 -41 61 -141 161 -169
170 -12 3 -21 10 -21 14 0 6 -10 9 -55 13 -27 3 -85 -12 -85 -21 0 -4 -9 -17
-20 -29 -12 -12 -18 -22 -15 -22 3 0 0 -10 -7 -22 -13 -25 -16 -37 -20 -88 -2
-19 -7 -38 -11 -41 -13 -9 22 -39 38 -33 8 4 15 1 15 -5 0 -6 4 -11 10 -11 21
0 130 -107 130 -128 0 -4 9 -13 20 -20 11 -7 20 -17 20 -22 0 -5 9 -21 21 -34
12 -13 20 -27 19 -31 -1 -4 2 -11 8 -14 11 -7 152 -245 152 -257 0 -4 -10 -28
-22 -52 -28 -58 -27 -136 1 -196 24 -49 41 -66 92 -93 l36 -19 -174 -1 -174
-1 44 28 c51 32 63 48 49 62 -7 7 -18 3 -34 -12 -12 -12 -35 -28 -50 -36 -28
-15 -108 -22 -126 -10 -6 3 -10 39 -10 86 l0 80 129 0 129 0 0 38 c-1 139
-154 229 -301 177 -140 -50 -191 -243 -90 -345 25 -25 74 -57 96 -62 11 -3
-38 -5 -110 -4 l-130 1 -3 160 c-5 265 -4 333 2 344 4 5 3 12 -1 14 -10 6 -8
260 1 276 4 6 3 11 -1 11 -10 0 -9 82 1 99 4 6 4 11 -1 11 -4 0 -7 28 -6 62 3
95 3 112 1 266 -2 104 0 147 9 154 8 7 214 10 595 11 l583 1 46 33 c26 18 51
33 58 33 6 0 11 4 11 8 0 10 50 37 63 34 4 -1 7 2 7 8 0 5 5 10 11 10 6 0 17
6 24 14 11 11 -112 13 -778 14 l-792 1 2 -45 c0 -25 3 -48 6 -50 3 -3 2 -18
-3 -33 -4 -16 -5 -34 -1 -40 4 -7 5 -31 1 -55 -3 -24 -3 -53 1 -65 5 -11 5
-21 1 -21 -4 0 -6 -57 -4 -128 3 -154 3 -143 2 -269 -1 -57 1 -107 5 -113 3
-5 3 -10 -2 -10 -4 0 -7 -69 -6 -154 l2 -154 -32 -13 c-18 -7 -47 -23 -65 -37
l-34 -24 2 88 c1 49 2 95 1 102 -1 10 -22 12 -83 10 l-83 -3 -1 -265 c0 -146
1 -270 3 -276 2 -6 35 -10 83 -10 79 0 80 1 81 26 0 14 0 84 1 157 l0 132 30
30 c27 26 74 48 84 38 2 -2 5 -118 8 -259 2 -140 7 -261 12 -269 8 -12 142
-14 862 -14 750 0 852 2 853 15 6 73 2 1380 -4 1380 -5 0 -5 6 -1 13 12 19
-24 -11 -90 -76 l-59 -59 -1 -375 -1 -376 -25 -15 c-14 -9 -44 -31 -67 -49
-23 -18 -46 -33 -52 -33 -6 0 -10 41 -10 113 0 61 0 127 0 145 l-1 33 -82 -3
-83 -3 0 -275 0 -275 -82 -1 c-46 0 -83 0 -83 2 0 1 16 11 35 23 19 11 35 27
35 36 0 19 -2 19 -43 -5 -46 -27 -124 -41 -140 -26 -9 9 -11 61 -9 189 l3 177
43 0 c26 0 61 -9 89 -24 35 -19 47 -22 51 -11 2 7 -1 18 -8 24 -24 20 -99 41
-148 41 l-49 0 31 57 c18 32 40 69 51 84 10 15 19 32 19 38 0 6 5 11 11 11 5
0 8 4 5 9 -3 4 3 16 14 26 11 10 20 24 20 32 0 7 5 13 12 13 6 0 9 3 6 6 -4 3
1 14 10 24 36 40 47 55 45 62 -2 5 1 8 7 8 5 0 16 13 25 30 8 16 27 41 42 55
16 14 24 25 20 25 -4 0 8 17 27 38 83 88 94 101 88 106 -3 3 2 6 11 6 9 0 16
4 14 9 -1 5 69 80 156 166 86 86 157 155 157 151 0 -3 15 10 33 27 17 18 57
53 87 77 30 25 57 47 60 50 4 4 147 120 169 137 12 9 -7 9 -29 0z m-1480
-1362 l0 -85 -54 0 -53 0 0 85 0 85 53 0 54 0 0 -85z m890 -147 c0 -4 16 -41
35 -82 19 -41 35 -77 35 -79 0 -2 -22 -3 -50 -3 l-50 -1 1 104 c2 88 4 100 15
85 7 -9 14 -20 14 -24z"/>
<path d="M1308 3139 c-61 -9 -143 -54 -179 -98 -85 -104 -75 -282 21 -380 64
-65 187 -97 290 -77 42 9 119 48 125 64 10 28 -12 35 -35 12 -39 -39 -98 -55
-187 -51 -21 1 -21 1 -21 250 0 246 1 249 22 255 45 11 144 -12 174 -41 18
-18 42 -16 42 3 0 21 -96 63 -156 67 -27 2 -70 0 -96 -4z"/>
<path d="M3890 2865 c0 -151 3 -276 8 -276 4 -1 49 -3 100 -4 l92 -2 0 26 c1
40 1 462 1 499 l-1 32 -100 0 -100 0 0 -275z"/>
<path d="M4313 3103 c-73 -31 -83 -39 -84 -62 -1 -14 -1 -30 0 -35 1 -5 -10
-6 -24 -4 -29 6 -57 -18 -32 -28 8 -3 23 -4 33 -2 18 3 19 -7 21 -145 3 -171
14 -205 70 -232 46 -22 125 -21 169 2 44 22 74 67 57 84 -9 9 -17 3 -33 -24
-20 -34 -71 -59 -88 -43 -8 9 -9 335 0 349 4 6 28 12 54 12 56 0 76 24 22 26
-92 4 -83 -4 -82 72 1 37 1 67 0 66 0 0 -38 -17 -83 -36z"/>
<path d="M1429 2224 c-159 -47 -190 -271 -50 -369 l43 -30 1418 0 1418 0 44
30 c105 74 123 223 37 314 -67 70 45 65 -1486 66 -1070 1 -1392 -2 -1424 -11z
m599 -157 l3 -57 23 27 c15 17 34 27 54 28 33 2 33 -5 0 -42 -20 -21 -20 -22
6 -59 33 -49 33 -54 -3 -54 -20 0 -34 8 -45 25 -18 28 -36 25 -36 -6 0 -14 -7
-19 -30 -19 l-30 0 0 103 c0 57 2 106 5 109 3 2 15 4 27 3 21 -1 23 -8 26 -58z
m1402 34 c0 -13 -7 -18 -27 -16 -33 1 -38 27 -8 36 26 8 35 2 35 -20z m578
-84 l3 -107 -26 0 c-14 0 -25 5 -25 12 0 9 -3 9 -12 0 -16 -16 -73 -15 -86 1
-18 21 -24 79 -12 108 12 29 48 44 81 34 16 -5 19 -1 19 23 0 30 12 41 40 37
12 -1 16 -23 18 -108z m-2476 71 c2 -13 9 -22 16 -20 6 1 12 -7 12 -18 0 -11
-7 -20 -16 -20 -12 0 -14 -9 -12 -42 2 -24 7 -41 12 -40 11 5 26 -19 20 -30
-8 -12 -69 -9 -82 4 -7 7 -12 34 -12 60 0 26 -4 48 -10 48 -5 0 -10 9 -10 21
0 11 4 17 10 14 5 -3 12 6 16 20 8 33 51 36 56 3z m1418 -10 c0 -10 -7 -18
-15 -18 -12 0 -13 -4 -3 -26 11 -23 10 -29 -11 -45 -13 -11 -39 -19 -58 -19
-20 0 -32 -4 -28 -10 3 -5 28 -10 55 -10 53 0 71 -15 64 -55 -5 -33 -34 -45
-106 -45 -54 0 -69 3 -77 18 -6 11 -6 24 1 35 5 10 7 24 5 32 -3 7 0 21 8 31
9 13 10 24 4 37 -22 39 8 67 72 67 15 0 32 6 38 14 17 20 51 16 51 -6z m-1220
-28 c13 -13 20 -33 20 -60 0 -22 5 -40 10 -40 6 0 10 -9 10 -19 0 -17 -8 -19
-84 -19 -93 -1 -113 9 -102 52 6 25 51 50 81 44 10 -2 20 3 22 10 5 14 -30 16
-55 3 -9 -5 -26 -5 -36 -2 -18 7 -18 8 4 29 32 29 102 30 130 2z m198 -7 c12
-16 10 -18 -14 -21 -14 -2 -31 1 -36 6 -12 12 -40 4 -32 -9 3 -5 18 -9 34 -9
73 0 80 -97 7 -101 -59 -3 -107 16 -107 43 0 12 35 10 65 -4 19 -8 29 -8 37 0
8 8 0 12 -28 18 -46 8 -73 29 -69 52 2 9 4 21 4 25 3 30 116 31 139 0z m356
17 c33 -12 34 -40 3 -40 -13 0 -28 5 -34 11 -13 13 -36 3 -28 -12 4 -5 18 -9
32 -9 30 0 63 -26 63 -48 0 -9 -7 -24 -17 -34 -32 -36 -143 -18 -143 24 0 9
12 9 70 -4 8 -2 17 2 20 7 3 6 -10 11 -28 13 -36 4 -68 41 -58 67 11 30 74 43
120 25z m303 -12 c19 -20 28 -51 24 -84 -3 -29 -43 -54 -86 -54 -56 0 -85 27
-85 81 0 29 6 42 26 58 37 29 94 28 121 -1z m103 10 c0 -5 9 -4 21 2 11 7 27
9 34 6 20 -7 7 -42 -21 -55 -20 -9 -24 -18 -24 -56 0 -43 -1 -45 -29 -45 l-30
0 1 73 c0 39 2 75 4 79 6 9 44 6 44 -4z m424 -3 c13 -10 20 -28 21 -52 1 -21
7 -48 13 -60 7 -12 12 -24 12 -26 0 -10 -165 -5 -177 5 -17 13 -17 53 0 66 11
10 49 19 86 21 11 1 11 4 1 16 -10 12 -16 12 -34 3 -49 -27 -80 -12 -46 22 24
24 95 27 124 5z m108 4 c3 -9 9 -9 25 0 59 31 92 -3 91 -91 -1 -57 -2 -58 -30
-58 -30 0 -31 3 -30 72 1 21 -3 40 -9 44 -18 11 -40 -19 -39 -50 4 -63 2 -68
-27 -64 -27 3 -28 5 -29 68 0 36 2 71 4 78 5 15 39 16 44 1z m209 -3 c0 -6 1
-40 2 -76 l1 -65 -30 -3 -30 -3 2 78 c1 43 2 78 3 78 0 0 12 1 26 1 14 1 25
-3 26 -10z m167 -2 c32 -22 27 -37 -10 -32 -18 3 -37 7 -43 9 -5 2 -12 0 -14
-6 -2 -5 12 -13 30 -16 49 -7 59 -16 59 -49 0 -36 -23 -50 -84 -50 -35 0 -48
5 -61 23 -15 21 -14 22 10 25 15 2 33 -2 40 -8 15 -13 53 -5 41 8 -8 7 -14 9
-46 11 -30 2 -60 36 -53 61 10 39 89 53 131 24z m197 -9 c14 -13 25 -33 25
-45 0 -18 -6 -20 -60 -20 -49 0 -58 -3 -54 -15 6 -15 54 -22 54 -7 0 4 14 9
30 10 34 3 39 -12 13 -40 -23 -26 -106 -25 -133 2 -11 11 -20 23 -21 28 0 4
-2 16 -4 26 -5 24 23 74 44 79 45 12 83 6 106 -18z m315 -105 c0 -26 -3 -30
-29 -30 -31 0 -41 13 -33 43 3 11 14 17 33 17 26 0 29 -4 29 -30z m100 -1 c0
-28 -2 -30 -32 -27 -31 3 -38 15 -29 53 1 3 15 5 31 5 27 0 30 -3 30 -31z"/>
<path d="M3912 2021 c-22 -13 -11 -66 13 -66 16 0 20 7 20 34 0 36 -11 46 -33
32z"/>
<path d="M2840 2020 c0 -15 5 -20 18 -18 9 2 17 10 17 18 0 8 -8 16 -17 18
-13 2 -18 -3 -18 -18z"/>
<path d="M2822 1898 c5 -15 67 -18 71 -3 1 6 -15 11 -37 13 -28 3 -37 0 -34
-10z"/>
<path d="M1650 1970 c-11 -6 -12 -12 -4 -20 13 -13 44 -2 44 16 0 16 -18 18
-40 4z"/>
<path d="M2507 2023 c-4 -3 -7 -21 -7 -40 0 -29 3 -33 25 -33 14 0 26 5 26 10
1 6 2 16 3 23 5 31 -28 60 -47 40z"/>
<path d="M3035 1970 c-7 -12 2 -30 15 -30 5 0 14 9 20 20 9 17 8 20 -9 20 -11
0 -23 -4 -26 -10z"/>
<path d="M3710 2018 c0 -8 11 -14 25 -14 30 0 28 20 -3 24 -14 2 -22 -2 -22
-10z"/>
</g>
</svg>
