<?xml version="1.0" standalone="no"?>
<!DOCTYPE svg PUBLIC "-//W3C//DTD SVG 20010904//EN"
 "http://www.w3.org/TR/2001/REC-SVG-20010904/DTD/svg10.dtd">
<svg version="1.0" xmlns="http://www.w3.org/2000/svg"
 width="512.000000pt" height="512.000000pt" viewBox="0 0 512.000000 512.000000"
 preserveAspectRatio="xMidYMid meet">
<metadata>
Created by potrace 1.14, written by Peter Selinger 2001-2017
</metadata>
<g transform="translate(0.000000,512.000000) scale(0.100000,-0.100000)"
fill="#000000" stroke="none">
<path d="M2315 4339 c-517 -67 -998 -374 -1272 -814 -331 -530 -361 -1179 -82
-1738 393 -783 1303 -1159 2138 -881 842 281 1347 1156 1170 2028 -105 519
-431 957 -899 1209 -175 94 -386 163 -590 192 -114 16 -353 18 -465 4z m445
-53 c253 -34 514 -131 720 -268 328 -219 578 -549 694 -916 85 -270 101 -624
39 -892 -136 -593 -573 -1074 -1143 -1259 -201 -65 -272 -75 -530 -75 -207 0
-247 2 -340 22 -1002 217 -1595 1210 -1303 2182 112 376 360 709 692 932 224
150 508 253 771 281 88 9 305 5 400 -7z"/>
<path d="M1165 2831 c-82 -20 -152 -77 -181 -147 -19 -45 -18 -156 2 -202 34
-83 120 -142 219 -150 72 -5 162 17 190 48 21 23 12 40 -13 22 -47 -33 -81
-45 -132 -46 l-55 -1 -3 227 c-2 220 -2 227 18 233 29 9 125 -13 154 -36 32
-25 55 -15 30 12 -35 38 -151 58 -229 40z"/>
<path d="M1500 2585 l0 -245 75 0 75 0 0 138 0 138 33 32 c18 18 43 32 55 32
21 0 22 -3 24 -172 l3 -173 73 -3 72 -3 0 156 c0 118 -4 163 -15 185 -29 56
-128 63 -200 14 -20 -13 -38 -24 -40 -24 -3 0 -5 38 -5 85 l0 85 -75 0 -75 0
0 -245z"/>
<path d="M2890 2580 l0 -251 73 3 72 3 5 95 5 95 44 -97 45 -98 78 0 c91 0 90
-19 4 164 -31 66 -53 122 -49 126 5 4 27 21 51 39 41 32 55 61 29 61 -8 0 -22
-10 -33 -21 -20 -23 -159 -129 -168 -129 -4 0 -6 59 -6 130 l0 130 -75 0 -75
0 0 -250z"/>
<path d="M3510 2585 l0 -245 90 0 90 0 0 245 0 245 -90 0 -90 0 0 -245z"/>
<path d="M3895 2802 c-81 -36 -85 -40 -85 -68 0 -19 -5 -24 -24 -24 -14 0 -28
-4 -31 -10 -4 -6 7 -10 24 -10 l31 0 1 -127 c0 -153 11 -191 59 -216 54 -28
141 -19 180 18 28 26 40 55 23 55 -3 0 -18 -13 -32 -30 -14 -16 -38 -32 -53
-36 l-28 -6 0 171 0 171 50 0 c28 0 50 5 50 10 0 6 -22 10 -50 10 l-49 0 -3
59 -3 60 -60 -27z"/>
<path d="M2160 2710 c-73 -14 -118 -49 -145 -113 -55 -133 43 -267 196 -269
56 0 133 33 150 64 17 31 3 33 -31 5 -36 -31 -94 -50 -135 -45 l-30 3 -3 78
-3 77 121 0 c134 0 130 -2 110 72 -13 44 -52 93 -89 112 -35 18 -98 25 -141
16z m100 -101 l0 -80 -47 3 -48 3 -3 78 -3 77 51 0 50 0 0 -81z"/>
<path d="M2630 2714 c-56 -10 -70 -15 -100 -40 -75 -64 -92 -179 -38 -262 52
-77 179 -107 267 -63 23 12 41 28 41 36 0 19 4 19 -54 -10 -27 -14 -64 -25
-83 -25 l-33 0 0 170 0 170 43 0 c23 0 59 -9 79 -20 22 -11 40 -16 43 -10 7
12 -53 50 -80 50 -11 0 -29 2 -40 4 -11 2 -31 2 -45 0z"/>
<path d="M1214 1958 l-19 -23 23 19 c21 18 27 26 19 26 -2 0 -12 -10 -23 -22z"/>
<path d="M3895 1960 c10 -11 20 -20 23 -20 3 0 -3 9 -13 20 -10 11 -20 20 -23
20 -3 0 3 -9 13 -20z"/>
<path d="M1800 1930 c0 -5 7 -10 15 -10 11 0 15 -13 15 -52 l1 -53 20 28 c14
19 30 27 50 27 35 0 36 -6 7 -37 l-22 -23 22 -39 c28 -49 28 -51 -6 -51 -21 0
-32 7 -40 26 -13 28 -32 24 -32 -7 0 -14 -7 -19 -30 -19 l-30 0 -1 103 c-1 56
-4 93 -7 82 -7 -20 -16 -22 -132 -23 -139 -2 -180 4 -196 26 -16 23 -58 30
-69 12 -3 -5 -1 -10 4 -10 6 0 11 -9 11 -20 0 -11 7 -20 15 -20 8 0 15 -9 15
-20 0 -11 -7 -20 -15 -20 -10 0 -15 -11 -15 -35 0 -24 5 -35 15 -35 9 0 15 -9
15 -21 0 -19 -5 -21 -40 -17 -25 2 -36 0 -30 -6 6 -6 166 -10 391 -10 l381 -1
20 25 c16 20 18 33 13 74 -10 78 -26 87 -151 83 -90 -3 -104 -1 -104 13 0 9
-5 21 -12 28 -14 14 -78 16 -78 2z m-238 -77 c9 -8 18 -33 20 -56 3 -23 6 -49
9 -57 5 -18 -36 -26 -54 -11 -8 6 -18 6 -27 1 -48 -31 -103 8 -81 56 9 20 18
24 51 24 39 0 52 12 29 26 -6 3 -16 1 -22 -5 -18 -18 -59 -14 -55 6 8 41 90
51 130 16z m173 -3 c18 -20 18 -21 -3 -27 -23 -6 -23 -6 -2 -20 26 -19 26 -48
-2 -67 -33 -23 -84 -20 -110 6 l-22 22 23 6 c21 5 22 7 7 19 -19 16 -21 52 -4
69 20 20 92 15 113 -8z m337 3 c24 -22 23 -33 -4 -33 l-22 0 22 -16 c28 -19
28 -49 0 -68 -32 -23 -84 -20 -110 6 -20 20 -20 22 -3 35 11 7 13 13 7 13 -16
0 -16 52 0 68 18 18 88 15 110 -5z"/>
<path d="M1493 1783 c-20 -8 -15 -23 7 -23 11 0 20 7 20 15 0 15 -6 17 -27 8z"/>
<path d="M1660 1830 c0 -5 9 -10 21 -10 11 0 17 5 14 10 -3 6 -13 10 -21 10
-8 0 -14 -4 -14 -10z"/>
<path d="M1655 1770 c3 -5 16 -10 28 -9 21 0 21 1 2 9 -28 12 -37 12 -30 0z"/>
<path d="M2005 1830 c-3 -5 3 -10 15 -10 12 0 18 5 15 10 -3 6 -10 10 -15 10
-5 0 -12 -4 -15 -10z"/>
<path d="M1995 1770 c3 -5 16 -10 28 -10 18 0 19 2 7 10 -20 13 -43 13 -35 0z"/>
<path d="M3070 1931 c0 -6 7 -11 15 -11 8 0 15 -8 15 -18 0 -17 -13 -18 -190
-18 -142 1 -191 4 -195 14 -3 7 -23 12 -52 11 -26 0 -41 -3 -33 -6 8 -2 21 -7
29 -9 11 -4 11 -8 -2 -22 -10 -11 -14 -26 -10 -41 7 -29 -18 -51 -59 -51 -15
0 -28 -4 -28 -10 0 -5 19 -9 41 -8 31 1 45 -4 55 -17 18 -24 18 -28 -5 -56
l-19 -24 -664 -5 c-482 -4 -321 -6 592 -5 690 0 1004 1 697 2 l-558 3 16 23
c15 21 20 22 213 23 108 1 202 3 207 5 6 2 35 0 65 -4 67 -9 132 11 106 32
-32 27 -28 100 8 123 6 4 29 8 52 8 44 0 67 -17 77 -57 4 -20 1 -23 -26 -24
-18 -1 -43 0 -56 1 -15 1 -22 -3 -19 -12 5 -16 48 -24 48 -9 0 6 11 11 25 11
60 0 7 -59 -55 -61 l-35 -1 40 -10 c22 -5 56 -6 75 -1 19 4 42 6 50 5 50 -7
328 -7 343 0 11 6 17 20 17 43 0 37 -19 49 -71 44 -13 -1 -41 -1 -61 -1 l-38
2 0 51 c0 69 -12 89 -55 89 -19 0 -35 -4 -35 -10 0 -5 7 -10 15 -10 12 0 15
-18 15 -100 l0 -100 -25 0 c-14 0 -25 5 -25 12 0 9 -3 9 -12 0 -16 -16 -63
-15 -77 2 -19 22 -24 81 -11 106 20 37 -10 53 -85 46 -33 -4 -69 -6 -80 -5
-11 0 -50 2 -87 2 -64 1 -67 3 -70 27 -3 21 -9 25 -40 28 -22 2 -38 -1 -38 -7z
m-257 -79 c10 -9 17 -29 17 -52 0 -20 5 -41 11 -47 6 -6 8 -16 5 -22 -9 -14
-53 -14 -61 -1 -4 7 -12 7 -25 0 -27 -15 -56 -12 -74 6 -34 33 -6 74 51 74 23
0 33 4 30 13 -2 6 -11 10 -18 8 -8 -2 -27 -6 -42 -9 -24 -4 -28 -1 -25 14 8
42 90 52 131 16z m97 6 c0 -9 3 -9 12 0 19 19 66 15 78 -7 5 -11 10 -45 10
-75 0 -56 0 -56 -30 -56 -30 0 -30 1 -30 55 0 42 -3 55 -15 55 -12 0 -15 -13
-15 -55 0 -54 0 -55 -30 -55 l-30 0 0 75 c0 73 1 75 25 75 14 0 25 -5 25 -12z
m190 -63 l0 -75 -30 0 -30 0 0 75 0 75 30 0 30 0 0 -75z m141 65 c10 -6 19
-18 19 -27 0 -15 -23 -15 -62 2 -10 4 -18 3 -18 -3 0 -5 14 -12 32 -16 59 -12
73 -41 38 -76 -28 -28 -90 -27 -116 1 -18 19 -18 21 -1 30 15 9 16 12 2 25
-47 47 39 99 106 64z m459 -110 c0 -25 -4 -30 -23 -30 -31 0 -35 5 -29 35 3
18 11 25 28 25 20 0 24 -5 24 -30z m90 -1 c0 -27 -3 -30 -27 -27 -22 2 -29 9
-31 31 -3 24 0 27 27 27 28 0 31 -3 31 -31z"/>
<path d="M2743 1783 c-20 -8 -15 -23 7 -23 11 0 20 7 20 15 0 15 -6 17 -27 8z"/>
<path d="M3170 1770 c0 -5 10 -10 23 -10 18 0 19 2 7 10 -19 13 -30 13 -30 0z"/>
<path d="M1316 1883 c-6 -14 -5 -15 5 -6 7 7 10 15 7 18 -3 3 -9 -2 -12 -12z"/>
<path d="M3535 1891 c-19 -8 -19 -8 3 -20 19 -10 22 -9 22 9 0 11 -1 20 -2 19
-2 0 -12 -4 -23 -8z"/>
<path d="M2243 1879 c-34 -12 -29 -14 26 -11 43 3 51 1 70 -24 43 -54 5 -123
-68 -125 -34 -1 -33 -2 14 -11 29 -5 58 -6 70 0 11 4 38 5 59 1 39 -6 75 -2
78 10 4 17 9 69 9 92 0 35 31 62 69 61 16 0 32 3 34 7 7 10 -334 10 -361 0z
m237 -35 c0 -17 -6 -24 -19 -24 -17 0 -20 -8 -23 -47 -3 -44 -5 -48 -30 -51
l-28 -3 0 75 0 75 50 -1 c46 0 50 -2 50 -24z"/>
<path d="M1291 1844 c0 -11 3 -14 6 -6 3 7 2 16 -1 19 -3 4 -6 -2 -5 -13z"/>
<path d="M2560 1825 c0 -10 7 -15 18 -13 21 4 19 22 -2 26 -10 2 -16 -3 -16
-13z"/>
<path d="M3353 1833 c-22 -8 -14 -23 12 -23 14 0 25 4 25 9 0 11 -21 19 -37
14z"/>
<path d="M2254 1816 c-10 -26 0 -51 21 -51 16 0 20 7 20 30 0 33 -30 49 -41
21z"/>
<path d="M3522 1798 c4 -43 33 -46 33 -3 0 21 -5 31 -18 33 -15 3 -18 -2 -15
-30z"/>
<path d="M1313 1785 c0 -22 2 -30 4 -17 2 12 2 30 0 40 -3 9 -5 -1 -4 -23z"/>
<path d="M2190 1763 c0 -5 10 -18 23 -29 l22 -19 -20 25 c-11 14 -21 27 -22
29 -2 2 -3 0 -3 -6z"/>
<path d="M2552 1722 c-7 -2 -10 -8 -6 -13 7 -12 64 -12 64 0 0 10 -40 19 -58
13z"/>
</g>
</svg>
