<?xml version="1.0" encoding="UTF-8"?>
<svg version="1.1" xmlns="http://www.w3.org/2000/svg" width="200" height="200" style="color : green">
<path d="M0 0 C1.02500107 -0.00029205 2.05000214 -0.00058411 3.10606384 -0.00088501 C6.48241746 0.00050449 9.85854837 0.01604804 13.23486328 0.03173828 C15.58041259 0.03546975 17.92596346 0.03831609 20.27151489 0.04031372 C26.43644536 0.04793957 32.60128117 0.06757917 38.76617432 0.08972168 C45.06041178 0.11020261 51.35466458 0.11932025 57.64892578 0.12939453 C69.9927173 0.15082597 82.33643866 0.18494936 94.68017578 0.22705078 C85.41873039 11.6232265 85.41873039 11.6232265 80.69179916 12.66546822 C78.3177838 12.85321909 75.99823139 12.86564632 73.6171875 12.82299805 C72.27951828 12.82908585 72.27951828 12.82908585 70.91482544 12.83529663 C68.98656068 12.84080045 67.05823609 12.83484319 65.13003159 12.81863594 C62.07837609 12.79319452 59.02806972 12.7980201 55.97634888 12.81053162 C49.50247555 12.83126092 43.02902149 12.81159267 36.55517578 12.78955078 C29.04556897 12.76845404 21.53639569 12.76384046 14.02679825 12.79005241 C11.01966343 12.79341808 8.01335392 12.77217768 5.00631714 12.74964905 C3.16566792 12.75215975 1.32501973 12.75571921 -0.515625 12.76049805 C-1.35208557 12.74761246 -2.18854614 12.73472687 -3.050354 12.72145081 C-6.3797391 12.75032975 -8.88340683 12.99303415 -11.83872986 14.57774353 C-14.2535598 18.89727013 -13.86652245 23.21819759 -13.8215332 28.08251953 C-13.82693619 29.18858551 -13.83233917 30.29465149 -13.83790588 31.43423462 C-13.85042503 35.09461122 -13.83388002 38.75420621 -13.81591797 42.41455078 C-13.81607288 44.95515993 -13.81756057 47.49576931 -13.82032776 50.03637695 C-13.82171319 55.36274547 -13.80956261 60.68883759 -13.78637695 66.01513672 C-13.75976755 72.17050508 -13.75802032 78.3254965 -13.76976532 84.48090267 C-13.78054975 90.40548992 -13.77424985 96.32996226 -13.76021004 102.25454712 C-13.75568828 104.77437951 -13.75536503 107.29422299 -13.75927544 109.8140564 C-13.76218022 113.33346415 -13.74571475 116.85225247 -13.72387695 120.37158203 C-13.73062943 121.93956039 -13.73062943 121.93956039 -13.73751831 123.53921509 C-13.72761368 124.49814667 -13.71770905 125.45707825 -13.70750427 126.44506836 C-13.70385943 127.69275749 -13.70385943 127.69275749 -13.70014095 128.96565247 C-13.21592082 131.84486993 -12.40719518 133.19031106 -10.31982422 135.22705078 C-8.08118768 135.8212536 -8.08118768 135.8212536 -5.53074646 135.7215271 C-4.54505676 135.72991608 -3.55936707 135.73830505 -2.54380798 135.74694824 C-1.46369949 135.73570923 -0.383591 135.72447021 0.72924805 135.71289062 C2.43683792 135.71858566 2.43683792 135.71858566 4.17892456 135.72439575 C7.95175493 135.73182124 11.7238198 135.71039098 15.49658203 135.68798828 C18.11067107 135.68560513 20.72476185 135.68469826 23.33885193 135.68521118 C28.82080662 135.68333805 34.3025399 135.66597136 39.78442383 135.63867188 C46.12663898 135.60720515 52.46861175 135.5966762 58.81089932 135.59814298 C64.90795163 135.59936272 71.00491195 135.58894448 77.10194206 135.57255936 C79.698786 135.56617761 82.29563712 135.56224926 84.89248848 135.56077194 C88.51528348 135.55645453 92.13776908 135.53898742 95.76049805 135.51757812 C96.84263077 135.5184845 97.92476349 135.51939087 99.03968811 135.52032471 C100.02255798 135.51179474 101.00542786 135.50326477 102.01808167 135.49447632 C102.87513986 135.49112463 103.73219805 135.48777294 104.6152277 135.48431969 C106.90272579 135.41400768 106.90272579 135.41400768 108.68017578 133.22705078 C108.85596415 130.44748832 108.90780986 127.76779148 108.87207031 124.98876953 C108.86926559 124.13647263 108.86646088 123.28417572 108.86357117 122.40605164 C108.85706109 120.5502853 108.84646184 118.69452994 108.83230972 116.83880615 C108.81286124 113.89532411 108.81064034 110.95232828 108.81417847 108.00878906 C108.82387473 99.6377965 108.82448325 91.26727255 108.75927734 82.89648438 C108.72066802 77.77797393 108.72125059 72.6607198 108.74685287 67.54214478 C108.74925851 65.59661244 108.73728236 63.65100425 108.71026993 61.70565796 C108.46560511 43.32273627 108.46560511 43.32273627 115.57223511 35.99121094 C117.56061256 34.32711464 119.57845891 32.74513168 121.68017578 31.22705078 C121.74968852 44.68330919 121.80299369 58.13952488 121.8356123 71.59592628 C121.85126764 77.84428881 121.87250386 84.09252849 121.90649414 90.34082031 C121.93909176 96.37084536 121.95702979 102.40075225 121.96480751 108.43085861 C121.97035025 110.73135615 121.98117381 113.03184723 121.99736595 115.33229446 C122.01914513 118.5546796 122.02214244 121.77657653 122.02075195 124.99902344 C122.03153778 125.94992859 122.04232361 126.90083374 122.05343628 127.8805542 C122.02496618 133.97857821 121.25815056 138.43229176 116.96142578 143.09033203 C116.37361328 143.56857422 115.78580078 144.04681641 115.18017578 144.53955078 C114.59236328 145.03068359 114.00455078 145.52181641 113.39892578 146.02783203 C110.25973321 148.2181323 107.48315984 148.35621895 103.77961731 148.3742218 C102.26360428 148.38495476 102.26360428 148.38495476 100.71696472 148.39590454 C99.60887955 148.39859344 98.50079437 148.40128235 97.35913086 148.40405273 C96.19136108 148.41062393 95.02359131 148.41719513 93.82043457 148.42396545 C89.9468581 148.44371345 86.07332044 148.45536476 82.19970703 148.46533203 C80.86414761 148.46938079 79.5285884 148.47349775 78.1930294 148.47768211 C71.91607571 148.49673104 65.63913373 148.51096117 59.36215669 148.51929408 C52.12769369 148.52905768 44.89353737 148.55535509 37.65918237 148.59579498 C32.06073912 148.62601079 26.46238349 148.64076822 20.86386031 148.6440751 C17.52337345 148.64641996 14.18347386 148.65729368 10.84302711 148.68053627 C7.1111679 148.70488715 3.38010773 148.70396935 -0.35180664 148.69702148 C-1.44977066 148.70983154 -2.54773468 148.7226416 -3.67897034 148.73583984 C-9.98532 148.69310836 -15.26743269 148.28588569 -20.31982422 144.22705078 C-26.04807711 138.35087705 -26.03252874 131.85693442 -25.95092773 124.03125 C-25.95808304 122.83027679 -25.96523834 121.62930359 -25.97261047 120.39193726 C-25.98656157 117.11902095 -25.97825298 113.84713936 -25.95852017 110.57428122 C-25.9420558 107.13912196 -25.95095699 103.70401154 -25.95603943 100.26882935 C-25.96055055 94.50395685 -25.94474902 88.73940987 -25.91674805 82.97460938 C-25.88466979 76.31925625 -25.88472663 69.66448899 -25.90196282 63.00909412 C-25.91784846 56.59111333 -25.91108334 50.17334639 -25.8940258 43.75537491 C-25.88717148 41.03059283 -25.88817084 38.30598301 -25.89557076 35.58120346 C-25.90102023 31.77512033 -25.88065475 27.97003226 -25.85327148 24.1640625 C-25.85979736 23.03871094 -25.86632324 21.91335937 -25.87304688 20.75390625 C-25.79765316 14.59155157 -25.45494829 10.90854283 -21.31982422 6.22705078 C-14.90872989 0.15338247 -8.39013157 -0.06282667 0 0 Z " fill="#008800" transform="translate(45.31982421875,28.77294921875)"/>
<path d="M0 0 C0.33 0.33 0.66 0.66 1 1 C0.86571817 5.27635975 0.495117 7.42705524 -2.3359375 10.703125 C-3.33882812 11.54359375 -4.34171875 12.3840625 -5.375 13.25 C-6.47452125 14.20097294 -7.57213441 15.15415586 -8.66796875 16.109375 C-9.22532715 16.58826172 -9.78268555 17.06714844 -10.35693359 17.56054688 C-18.40365836 24.61009951 -25.48331557 32.53734424 -32 41 C-32.49838379 41.6384082 -32.99676758 42.27681641 -33.51025391 42.93457031 C-50.19502163 64.41988519 -63.92154534 88.26768163 -75.30859375 112.95703125 C-75.66187744 113.70911865 -76.01516113 114.46120605 -76.37915039 115.23608398 C-77.02015527 116.61285371 -77.64212037 117.99873322 -78.23999023 119.39477539 C-79.7241718 122.58116115 -80.62908159 123.84387616 -83.9140625 125.2265625 C-87 125 -87 125 -89.57421875 122.98046875 C-92.12652558 119.84454265 -94.52110335 116.64062228 -96.8125 113.3125 C-104.36621473 102.55882091 -112.52097231 92.29380617 -121.9453125 83.1015625 C-122.69107544 82.37247681 -122.69107544 82.37247681 -123.4519043 81.62866211 C-124.86462322 80.25819706 -126.28942707 78.90022205 -127.71484375 77.54296875 C-130.53546353 74.4041252 -131.89976242 71.95129156 -132.1171875 67.71875 C-131.5700491 62.70625625 -130.81707766 59.59895894 -127 56 C-123.98540788 54.18096041 -121.63367914 53.67965232 -118.125 53.625 C-117.30257812 53.59664062 -116.48015625 53.56828125 -115.6328125 53.5390625 C-109.54779572 54.60439185 -105.5045332 59.2439087 -101.5625 63.6875 C-101.09094482 64.21134277 -100.61938965 64.73518555 -100.13354492 65.27490234 C-89 77.75952261 -89 77.75952261 -89 81 C-88.01 81 -87.02 81 -86 81 C-84.32087801 78.78137672 -82.84229479 76.60334237 -81.375 74.25 C-80.48056112 72.86284089 -79.58338298 71.47744456 -78.68359375 70.09375 C-78.2335498 69.40023437 -77.78350586 68.70671875 -77.31982422 67.9921875 C-64.09079005 48.02383403 -28.60574543 -2.53258414 0 0 Z " fill="#008800" transform="translate(179,23)"/>
</svg>
